<svg t="1745724505956" class="icon" viewBox="0 0 1024 1024" version="1.1" xmlns="http://www.w3.org/2000/svg" p-id="7185" width="200" height="200"><path d="M489.472 24.576c12.8-7.168 28.16-8.192 41.472-2.048l3.584 2.048 388.096 224.256c12.8 7.168 20.992 20.48 22.528 35.328v452.096c0 14.848-7.168 28.672-19.456 36.864l-3.072 2.048-388.096 224.256c-12.8 7.168-28.16 8.192-41.472 2.048l-3.584-2.048-388.096-224.256c-12.8-7.168-20.992-20.48-22.528-35.328V287.744c0-14.848 7.168-28.672 19.456-36.864l3.072-2.048L489.472 24.576z m22.528 90.624L401.408 179.2 532.48 250.88c21.504 11.776 29.696 38.912 17.92 60.928-11.264 20.48-36.352 29.184-57.856 19.456l-3.072-1.536-179.2-97.792-141.824 81.92v396.8l298.496 172.544V537.6L290.816 434.688c-21.504-12.288-28.672-39.936-16.384-61.44 11.776-20.48 37.376-28.16 58.368-17.92l3.072 1.536 176.64 102.912 303.616-169.472L512 115.2z m343.552 256l-298.496 166.912v344.576l298.496-172.544V371.2z" p-id="7186"></path></svg>