<svg width="2213" height="1833" viewBox="0 0 2213 1833" fill="none" xmlns="http://www.w3.org/2000/svg">
<path d="M2210.63 952.009C2188.05 895.802 2165.76 839.447 2143.54 783.091C2097.3 665.754 2051.22 548.367 2004.95 431.054C1950.08 291.872 1894.91 152.814 1840.41 13.4838C1836.31 2.9697 1830.91 0.0999724 1820.45 0.124711C1717.81 0.42158 1615.14 0.446319 1512.5 0.0999724C1501.83 0.0752333 1496.32 3.31605 1492.41 13.5333C1469.95 71.9917 1446.84 130.227 1423.88 188.513C1383.21 291.65 1342.52 394.762 1301.72 497.85C1300.16 501.759 1299.91 506.657 1294.87 509.279C1293.68 506.805 1292.49 504.653 1291.6 502.402C1260.58 423.83 1229.56 345.235 1198.58 266.639C1165.48 182.674 1132.28 98.7346 1099.5 14.6465C1095.32 3.90979 1089.34 -0.073201 1077.54 0.00101617C975.71 0.471058 873.884 0.446319 772.058 0.0504943C760.876 0.00101617 755.062 3.41501 750.98 14.1023C732.624 62.2197 713.476 110.065 694.55 157.96C647.175 277.944 599.651 397.879 552.375 517.888C503.589 641.732 455.126 765.724 406.365 889.568C345.977 1042.95 285.391 1196.26 224.929 1349.62C218.497 1365.92 219.09 1366.71 236.952 1366.71C347.016 1366.73 457.105 1366.78 567.169 1366.71C593.862 1366.69 589.459 1369.65 598.909 1345.41C660.781 1186.83 722.431 1028.18 784.18 869.554C830.071 751.648 876.011 633.766 921.976 515.884C929.101 497.578 936.473 479.37 945.083 457.748C948.497 465.565 950.426 469.622 952.084 473.779C986.125 560.019 1020.07 646.334 1054.21 732.549C1074.99 785.045 1096.14 837.393 1116.92 889.89C1120.36 898.548 1124.94 907.083 1121.84 917.226C1105.79 970.069 1092.53 1023.93 1073.43 1075.63C1039.31 1168.01 1001.69 1259.1 965.517 1350.73C959.506 1365.94 959.926 1366.73 975.957 1366.73C1089.73 1366.76 1203.53 1366.64 1317.31 1366.93C1328.04 1366.96 1333.39 1363.3 1337.22 1353.15C1356.74 1301.5 1377.15 1250.19 1396.89 1198.61C1400.95 1188 1406.71 1183.59 1418.79 1183.64C1534.22 1184.11 1649.65 1183.91 1765.08 1183.96C1782.05 1183.96 1782.47 1184.7 1777.65 1200.61C1762.24 1251.5 1747.05 1302.44 1731.46 1353.28C1728.49 1362.97 1730.62 1366.88 1741.23 1366.86C1843.06 1366.66 1944.89 1366.69 2046.74 1366.86C2055.1 1366.88 2059.63 1363.47 2062.32 1355.87C2066.58 1343.83 2071.23 1331.93 2075.86 1320.03C2120.71 1204.82 2165.53 1089.61 2210.63 974.497C2213.78 966.556 2213.8 959.852 2210.63 952.009ZM1863.17 918.636C1851.5 956.438 1839.87 994.264 1828.79 1032.24C1826.16 1041.24 1821.86 1044.76 1812.29 1044.73C1698.51 1044.46 1584.71 1044.58 1470.94 1044.53C1457.92 1044.53 1457.6 1043.94 1462.67 1030.93C1500.28 934.568 1538 838.234 1575.56 741.851C1610.41 652.37 1645.07 562.814 1679.81 473.309C1681.42 469.152 1682.55 464.724 1687.7 459.776C1703.73 500.274 1719.09 538.892 1734.33 577.534C1776.83 685.248 1819.24 793.011 1861.79 900.7C1864.21 906.687 1865.15 912.229 1863.17 918.636Z" fill="black"/>
<path d="M1965.37 1469.65C1963.72 1469.62 1962.08 1469.65 1960.43 1469.65C1369.29 1469.65 778.146 1469.67 187.006 1469.6C175.478 1469.6 163.974 1468.63 152.446 1468.19C144.554 1467.89 139.73 1471.16 136.638 1478.98C91.8847 1592.9 46.9091 1706.75 1.78508 1820.5C-2.04948 1830.15 0.0780834 1832.3 10.2706 1832.27C312.854 1832.03 615.437 1832.08 917.996 1832.08C1218.92 1832.05 1519.85 1831.98 1820.8 1832.35C1834.33 1832.37 1841.26 1828.74 1846.23 1815.6C1874.58 1740.86 1903.87 1666.45 1932.89 1591.96C1946.94 1555.86 1961.09 1519.8 1975.15 1483.7C1980.12 1470.98 1979.25 1469.85 1965.37 1469.65Z" fill="black"/>
</svg>
